<svg xmlns="http://www.w3.org/2000/svg" width="70" height="70" fill="none" xmlns:v="https://vecta.io/nano"><path fill-rule="evenodd" d="M21.779 0c3.214.053 16.202 7.435 18.626 24.961 2.64-2.593 4.11-10.687 3.345-14.125 11.527 8.66 17.5 19.778 17.5 32.182C61.25 57.875 51.246 70 35.108 70 18.401 70 8.75 59.054 8.75 45.862 8.75 27.603 23.485 23.637 21.779 0zm9.514 57.584c-2.185 2.473-1.073 5.673 2.225 5.965 3.019.271 5.13-2.368 5.927-5.227.796-2.852.263-5.892-1.076-8.438-2.911 4.419-4.433 4.783-7.076 7.7zm12.892 4.69c7.262-3.343 11.235-10.742 11.235-19.192 0-6.877-2.742-14.516-7.292-20.533C45.961 30.911 39.6 34.151 35 35c.146-9.389-.928-17.946-7.589-24.611-.863 13.802-12.603 22.254-12.827 35.332-.085 4.407 1.499 9.342 5.046 12.877 1.432 1.426 3.074 2.54 4.853 3.383a9.1 9.1 0 0 1 .569-5.39c2.657-6.143 9.721-6.77 12.256-16.782 2.777 2.185 9.552 10.217 8.102 18.544-.239 1.368-.653 2.692-1.225 3.92z" fill="#017113"/></svg>