<svg xmlns="http://www.w3.org/2000/svg" width="70" height="70" fill="none" xmlns:v="https://vecta.io/nano"><path fill-rule="evenodd" d="M63.659 26.25h-6.084c.499-1.421.764-2.791.764-4.113 0-6.784-5.302-11.013-11.737-10.421-7.82.72-13.178 10.821-14.519 13.078-1.537-2.517-6.594-12.361-14.528-13.107-6.154-.58-11.722 3.445-11.722 10.448 0 9.068 12.679 20.662 26.253 33.877l9.695-9.459 2.829 5.416-12.524 12.195C14.108 46.556 0 34.408 0 22.155 0 12.547 7.181 6.037 16.549 5.833c6.309-.026 12.031 2.791 15.537 8.61 3.433-5.705 9.176-8.581 15.321-8.581 8.937 0 16.759 6.169 16.759 16.319 0 1.353-.175 2.707-.508 4.069zM31.302 37.917a5.83 5.83 0 0 1-5.052 2.917c-3.22 0-5.833-2.613-5.833-5.833s2.613-5.833 5.833-5.833a5.83 5.83 0 0 1 5.052 2.917h3.564l5.483-7.904c.408-.589 1.097-.919 1.814-.872a2.04 2.04 0 0 1 1.68 1.108l6.621 12.941 2.371-4.229a2.04 2.04 0 0 1 1.782-1.044H70v5.833H56.837l-5.13 8.482c-.385.639-1.088 1.015-1.835.983s-1.412-.467-1.744-1.135l-6.58-13.297-2.885 4.101c-.382.542-1.006.866-1.671.866h-5.69z" fill="#017113"/></svg>