<svg xmlns="http://www.w3.org/2000/svg" width="70" height="70" fill="none" xmlns:v="https://vecta.io/nano"><path fill-rule="evenodd" d="M35 0C25.168 8.359 19.005 8.75 8.75 8.75v33.644C8.75 55.819 18.092 59.322 35 70c16.908-10.678 26.25-14.181 26.25-27.606V8.75C50.995 8.75 44.832 8.359 35 0zm0 7.42c7.292 5.265 13.285 6.685 20.417 7.047v27.927c0 8.873-4.917 11.162-20.417 20.732-15.485-9.561-20.417-11.856-20.417-20.732V14.467C21.72 14.105 27.708 12.685 35 7.42zm0 11.538A16.05 16.05 0 0 1 51.042 35 16.05 16.05 0 0 1 35 51.042 16.05 16.05 0 0 1 18.958 35 16.05 16.05 0 0 1 35 18.958zm2.917 7.292h-5.833v5.833H26.25v5.833h5.833v5.833h5.833v-5.833h5.833v-5.833h-5.833V26.25z" fill="#017113"/></svg>