<svg xmlns="http://www.w3.org/2000/svg" width="70" height="70" fill="none" xmlns:v="https://vecta.io/nano"><path fill-rule="evenodd" d="M43.75 11.667h3.558a4.37 4.37 0 0 1 3.582 1.864c2.514 3.582 10.36 15.636 10.36 15.636l5.833 5.049C69.536 36.324 70 38.007 70 40.833v7.292a4.38 4.38 0 0 1-4.375 4.375H61.25c0 4.83-3.92 8.75-8.75 8.75s-8.75-3.92-8.75-8.75h-17.5c0 4.83-3.92 8.75-8.75 8.75s-8.75-3.92-8.75-8.75H2.917A2.92 2.92 0 0 1 0 49.583v-35a2.92 2.92 0 0 1 2.917-2.917h35V8.75h5.833v2.917zM17.701 48.848a3.65 3.65 0 0 1 3.649 3.649c0 2.012-1.636 3.649-3.649 3.649a3.65 3.65 0 0 1-3.649-3.649 3.65 3.65 0 0 1 3.649-3.649zm35 0a3.65 3.65 0 0 1 3.649 3.649c0 2.012-1.636 3.649-3.649 3.649a3.65 3.65 0 0 1-3.649-3.649 3.65 3.65 0 0 1 3.649-3.649zM35 17.5H5.833v29.167h5.148A8.72 8.72 0 0 1 17.5 43.75a8.72 8.72 0 0 1 6.519 2.917h21.963a8.72 8.72 0 0 1 13.038 0h5.148v-5.833c0-1.432 0-1.432-.887-2.193L59.071 35H35V17.5zm-11.667 2.917v5.833h5.833v5.833h-5.833v5.833H17.5v-5.833h-5.833V26.25H17.5v-5.833h5.833zM46.544 17.5h-5.711v11.667h13.449L46.544 17.5z" fill="#017113"/></svg>