<svg xmlns="http://www.w3.org/2000/svg" width="70" height="70" fill="none" xmlns:v="https://vecta.io/nano"><path d="M70 43.779C50 55.274 33.836 39.626 13.125 61.25L0 32.171l4.089-4.267 11.104 24.517-.006.02c21.715-16.319 32.652-3.43 52.818-13.309.858 1.89 1.648 3.885 1.995 4.646zM44.03 25.667c-1.371-3.194-5.2-5.329-8.552-4.772s-4.964 3.596-3.59 6.79c1.453 3.369 5.603 5.527 9.024 4.675 3.027-.75 4.425-3.652 3.118-6.694zm-4.223 3.975l.303.668-.636.131-.283-.639c-.656.12-1.406.102-2.097-.079l-.19-1.129c.569.088 1.277.169 1.817.058l.365-.12c.645-.318.446-1.129-.513-1.321-.712-.157-2.605-.041-3.31-1.61-.397-.887-.102-1.811 1.038-2.234l-.315-.697.633-.131.303.668c.464-.076 1.006-.105 1.642-.05l.254 1.117c-.493-.061-1.03-.12-1.493-.023l-.175.047c-.901.239-.612 1.094.187 1.301 1.321.306 2.899.405 3.523 1.785.502 1.123-.082 1.89-1.053 2.258zm16.462-14.05l7.05 15.199c-12.48 6.662-28.79-.992-43.75 7.294l-6.746-14.773c11.296-7.857 26.825-.102 43.447-7.72zm2.631-6.842C40.877 20.428 20.962 7.823 6.542 21.741l10.981 23.975c15.453-13.102 36.514-.694 52.36-12.994L58.899 8.75z" fill="#017113"/></svg>