<svg xmlns="http://www.w3.org/2000/svg" width="138" height="49" fill="none" xmlns:v="https://vecta.io/nano"><path d="M16.275 24.9c.217.55.467.95.75 1.2s.558.383.825.4v.5l-3.8-.075-3.8.075v-.5c.633-.033 1.083-.108 1.35-.225.267-.133.4-.358.4-.675 0-.3-.1-.7-.3-1.2l-1.5-4.1H4.75l-.65 1.725c-.467 1.2-.7 2.125-.7 2.775 0 .617.183 1.05.55 1.3.383.233.942.367 1.675.4v.5l-3.1-.075-1.9.075v-.5c.817-.15 1.533-1.025 2.15-2.625l5.7-14.625c.183.017.475.025.875.025l.85-.025 6.075 15.65zm-6.25-5.1L7.55 13.05l-2.6 6.75h5.075zM26.99 8.95c1 0 1.85.142 2.55.425s1.383.683 2.05 1.2c.183.15.342.225.475.225.333 0 .55-.5.65-1.5h.575l-.1 6.05h-.575c-.15-1.233-.35-2.175-.6-2.825s-.675-1.217-1.275-1.7c-.417-.4-.9-.7-1.45-.9-.55-.217-1.125-.325-1.725-.325-1.683 0-2.933.825-3.75 2.475-.817 1.633-1.225 3.675-1.225 6.125 0 2.433.425 4.467 1.275 6.1s2.117 2.45 3.8 2.45a4.87 4.87 0 0 0 1.675-.3 3.84 3.84 0 0 0 1.425-.925c.617-.467 1.042-1.05 1.275-1.75.25-.7.442-1.725.575-3.075h.575l.1 6.3h-.575c-.05-.533-.125-.908-.225-1.125-.083-.233-.208-.35-.375-.35-.133 0-.308.067-.525.2-.75.533-1.467.942-2.15 1.225-.683.267-1.508.4-2.475.4-1.767 0-3.317-.358-4.65-1.075-1.317-.717-2.342-1.75-3.075-3.1-.733-1.367-1.1-2.992-1.1-4.875 0-1.833.375-3.458 1.125-4.875s1.792-2.517 3.125-3.3c1.35-.783 2.883-1.175 4.6-1.175zm23.752.35l-.175 4.25.075 1.9h-.575c-.4-2.05-.95-3.492-1.65-4.325-.683-.833-1.625-1.25-2.825-1.25h-.575V24.15c0 .7.067 1.208.2 1.525.15.317.4.533.75.65.367.1.942.158 1.725.175v.5l-4.75-.075-4.575.075v-.5c.783-.017 1.35-.075 1.7-.175.367-.117.617-.333.75-.65.15-.317.225-.825.225-1.525V9.875h-.55c-.8 0-1.483.175-2.05.525-.55.35-1.025.933-1.425 1.75-.4.8-.742 1.9-1.025 3.3h-.575c.05-.483.075-1.117.075-1.9l-.175-4.25 7.725.075 7.7-.075zm7.349 10.55v4.35c0 .667.067 1.158.2 1.475.15.3.4.5.75.6.367.1.942.158 1.725.175V27l-4.575-.075-3.15.05-.8.025v-.5c.55-.033.95-.1 1.2-.2.267-.1.442-.292.525-.575.1-.283.15-.742.15-1.375v-12.4c0-.633-.05-1.092-.15-1.375-.083-.283-.258-.475-.525-.575-.25-.1-.65-.167-1.2-.2v-.5l3.8.075 2.775-.025 1.15-.025c2.25 0 3.967.45 5.15 1.35 1.183.883 1.775 2.075 1.775 3.575 0 .917-.233 1.8-.7 2.65-.467.833-1.258 1.533-2.375 2.1-1.1.567-2.567.85-4.4.85h-1.325zm1.55-10.05c-.45 0-.783.058-1 .175-.2.117-.342.325-.425.625s-.125.75-.125 1.35v7.4h1.075c1.35 0 2.283-.433 2.8-1.3s.775-2.042.775-3.525c0-1.617-.242-2.808-.725-3.575-.467-.767-1.258-1.15-2.375-1.15zm21.625 15.1c.217.55.467.95.75 1.2s.558.383.825.4v.5l-3.8-.075-3.8.075v-.5c.633-.033 1.083-.108 1.35-.225.267-.133.4-.358.4-.675 0-.3-.1-.7-.3-1.2l-1.5-4.1h-5.45l-.65 1.725c-.467 1.2-.7 2.125-.7 2.775 0 .617.183 1.05.55 1.3.383.233.942.367 1.675.4v.5l-3.1-.075-1.9.075v-.5c.817-.15 1.533-1.025 2.15-2.625l5.7-14.625a10.8 10.8 0 0 0 .875.025l.85-.025 6.075 15.65zm-6.25-5.1l-2.475-6.75-2.6 6.75h5.075zm30-10c-.567.033-.975.1-1.225.2s-.425.292-.525.575c-.083.283-.125.742-.125 1.375v12.4c0 .633.042 1.092.125 1.375.1.283.275.475.525.575.267.1.675.167 1.225.2v.5l-3.925-.075-3.95.075v-.5c.6-.033 1.033-.1 1.3-.2a.9.9 0 0 0 .575-.575c.1-.283.15-.742.15-1.375V11.275l-6.025 15.75h-.4l-6.75-16.1V22.9c0 .983.05 1.708.15 2.175.1.45.317.783.65 1 .333.2.875.342 1.625.425v.5l-2.7-.075L83.54 27v-.5c.55-.083.95-.225 1.2-.425.267-.2.442-.517.525-.95.1-.433.15-1.075.15-1.925V11.95c0-.633-.05-1.092-.15-1.375-.083-.283-.258-.475-.525-.575-.25-.1-.65-.167-1.2-.2v-.5c.533.05 1.258.075 2.175.075l3.95-.075 5.05 12.175 4.6-12.1h1.775l3.925-.075v.5zm15.369 13.4l.175 3.8-5.725-.075-8.15.075v-.5c.55-.033.95-.1 1.2-.2.267-.1.442-.292.525-.575.1-.283.15-.742.15-1.375v-12.4c0-.633-.05-1.092-.15-1.375-.083-.283-.258-.475-.525-.575-.25-.1-.65-.167-1.2-.2v-.5l8.15.075 5.225-.075-.175 3.7.075 1.7h-.575c-.25-1.783-.7-3.033-1.35-3.75s-1.567-1.075-2.75-1.075h-1.025c-.517 0-.892.042-1.125.125a.75.75 0 0 0-.475.5c-.083.233-.125.617-.125 1.15v6.2h.8c.883 0 1.55-.325 2-.975.467-.65.792-1.425.975-2.325h.575l-.075 2.35v1.2l.15 3.55h-.575c-.35-2.2-1.367-3.3-3.05-3.3h-.8v6.3c0 .533.042.925.125 1.175a.75.75 0 0 0 .475.475c.233.083.608.125 1.125.125h1.225c1.183 0 2.133-.4 2.85-1.2.733-.817 1.25-2.192 1.55-4.125h.575c-.05.55-.075 1.25-.075 2.1zm17.245 3.3l-.175 3.25.075 1.625h-.575c-.25-1.6-.717-2.733-1.4-3.4-.684-.65-1.634-.975-2.85-.975h-6.05c-1.217 0-2.167.325-2.85.975-.684.667-1.15 1.8-1.4 3.4h-.575c.05-.4.075-.942.075-1.625 0-.95-.059-2.033-.175-3.25h.45c1.15 0 2.033-.658 2.65-1.975.633-1.317 1.066-2.9 1.3-4.75l.65-7.2.05-.625c.033-.6 0-1.042-.1-1.325-.084-.3-.267-.5-.55-.6-.284-.117-.742-.192-1.375-.225v-.5l2.575.075 1.125-.05 1.075-.025 1.675.025 1.9.05 3.875-.075v.5c-.6.033-1.042.1-1.325.2-.267.1-.45.292-.55.575s-.15.742-.15 1.375v12.4c0 .633.041 1.1.125 1.4.1.283.275.483.525.6.266.1.675.15 1.225.15h.75zm-6.6-14.55c0-.6-.059-1.05-.175-1.35-.1-.317-.275-.525-.525-.625-.234-.117-.575-.175-1.025-.175h-.325c-.384 0-.675.058-.875.175s-.359.325-.475.625c-.1.3-.175.75-.225 1.35l-.2 2.45-.5 5.425c-.184 1.433-.5 2.775-.95 4.025s-1.084 2.133-1.9 2.65h5.15c.583 0 1.016-.05 1.3-.15.283-.117.475-.317.575-.6.1-.3.15-.767.15-1.4v-12.4z" fill="#004a0c"/><path d="M8.072 44.407c.61 0 1.121-.171 1.531-.513s.64-.793.674-1.34h.842a2.5 2.5 0 0 1-.454 1.326 2.85 2.85 0 0 1-1.113.93 3.32 3.32 0 0 1-1.479.337c-1.04 0-1.865-.361-2.476-1.084s-.908-1.694-.908-2.915v-.264c0-.781.137-1.472.41-2.073s.664-1.064 1.172-1.392 1.111-.491 1.794-.491c.869 0 1.584.259 2.146.776s.869 1.199.908 2.043h-.842c-.039-.62-.264-1.121-.674-1.501s-.918-.571-1.538-.571c-.791 0-1.406.286-1.846.857s-.652 1.372-.652 2.402v.256c0 1.011.217 1.799.652 2.366s1.057.85 1.853.85zm10.496-6.584h-2.886V45h-.879v-7.178h-2.776v-.747h6.541v.747zm7.815 3.296c0 1.235-.273 2.217-.82 2.944s-1.279 1.084-2.197 1.084c-1.084 0-1.914-.381-2.49-1.143v4.043h-.872V37.075h.813l.044 1.121c.571-.845 1.399-1.267 2.483-1.267.947 0 1.689.359 2.227 1.077s.813 1.714.813 2.988v.125zm-.879-.154c0-1.011-.208-1.809-.623-2.395s-.994-.879-1.736-.879c-.537 0-.998.129-1.384.388s-.681.635-.886 1.128v3.801c.21.454.51.801.901 1.04s.852.359 1.384.359c.737 0 1.311-.293 1.721-.879s.623-1.445.623-2.563zM33.334 45c-.088-.249-.144-.618-.169-1.106a3.08 3.08 0 0 1-1.179.93 3.61 3.61 0 0 1-1.509.322c-.762 0-1.379-.212-1.853-.637a2.08 2.08 0 0 1-.703-1.611 2.12 2.12 0 0 1 .96-1.831c.644-.449 1.54-.674 2.688-.674h1.589v-.901c0-.566-.176-1.011-.527-1.333s-.855-.491-1.524-.491c-.61 0-1.116.156-1.516.469s-.601.688-.601 1.128l-.879-.007c0-.63.293-1.174.879-1.633s1.306-.696 2.161-.696c.884 0 1.58.222 2.087.666s.776 1.055.791 1.846v3.75c0 .767.081 1.34.242 1.721V45h-.937zm-2.754-.63c.586 0 1.108-.142 1.567-.425s.801-.662 1.011-1.135v-1.743H31.59c-.874.01-1.558.171-2.051.483s-.74.732-.74 1.274a1.42 1.42 0 0 0 .491 1.106c.332.293.762.439 1.289.439zm8.284-4.08l2.139-3.215h1.04l-2.688 3.889L42.159 45h-1.033l-2.256-3.355L36.615 45h-1.033l2.798-4.036-2.688-3.889h1.033l2.139 3.215zm4.175.63c0-.762.147-1.448.439-2.058.298-.61.715-1.084 1.252-1.421s1.155-.513 1.838-.513c1.055 0 1.909.371 2.563 1.113s.982 1.716.982 2.937v.183c0 .767-.149 1.457-.447 2.073-.293.61-.708 1.081-1.245 1.413s-1.15.498-1.838.498c-1.05 0-1.904-.369-2.563-1.106s-.981-1.724-.981-2.944v-.176zm.879.242c0 .947.244 1.726.732 2.336s1.138.908 1.934.908 1.431-.303 1.919-.908.74-1.413.74-2.41v-.169c0-.605-.112-1.16-.337-1.663s-.54-.891-.945-1.165-.869-.417-1.392-.417c-.781 0-1.418.308-1.912.923s-.74 1.411-.74 2.402v.161zM52.025 45v-7.925h2.908c1.006 0 1.777.181 2.315.542s.806.881.806 1.575a1.7 1.7 0 0 1-.359 1.062c-.239.308-.588.532-1.047.674.518.098.933.32 1.245.666s.476.75.476 1.209c0 .698-.259 1.24-.776 1.626s-1.24.571-2.183.571h-3.384zm.872-3.648v2.915h2.541c.659 0 1.167-.127 1.523-.381s.535-.62.535-1.099c0-.44-.178-.789-.535-1.047s-.864-.388-1.523-.388h-2.541zm0-.732h2.219c1.377-.02 2.066-.488 2.066-1.406 0-.483-.191-.835-.571-1.055s-.935-.337-1.677-.337h-2.036v2.798zM65.326 45c-.088-.249-.144-.618-.168-1.106a3.08 3.08 0 0 1-1.179.93 3.61 3.61 0 0 1-1.509.322c-.762 0-1.379-.212-1.853-.637a2.08 2.08 0 0 1-.703-1.611 2.12 2.12 0 0 1 .959-1.831c.645-.449 1.541-.674 2.688-.674h1.589v-.901c0-.566-.176-1.011-.527-1.333s-.855-.491-1.524-.491c-.61 0-1.116.156-1.516.469s-.601.688-.601 1.128l-.879-.007c0-.63.293-1.174.879-1.633s1.306-.696 2.161-.696c.884 0 1.58.222 2.087.666s.776 1.055.791 1.846v3.75c0 .767.081 1.34.242 1.721V45h-.937zm-2.754-.63c.586 0 1.108-.142 1.567-.425s.801-.662 1.011-1.135v-1.743h-1.567c-.874.01-1.558.171-2.051.483s-.74.732-.74 1.274a1.42 1.42 0 0 0 .491 1.106c.332.293.762.439 1.289.439zm11.594-3.003H72.95V45h-.886v-7.925h.886v3.516h1.201l2.908-3.516h1.106l-3.252 3.845L78.524 45h-1.157l-3.201-3.633zm4.981-.447c0-.762.147-1.448.439-2.058.298-.61.715-1.084 1.252-1.421s1.155-.513 1.838-.513c1.055 0 1.909.371 2.563 1.113s.981 1.716.981 2.937v.183c0 .767-.149 1.457-.447 2.073-.293.61-.708 1.081-1.245 1.413s-1.15.498-1.838.498c-1.05 0-1.904-.369-2.564-1.106s-.981-1.724-.981-2.944v-.176zm.879.242c0 .947.244 1.726.732 2.336s1.138.908 1.934.908 1.431-.303 1.919-.908.74-1.413.74-2.41v-.169c0-.605-.112-1.16-.337-1.663s-.54-.891-.945-1.165-.869-.417-1.392-.417c-.781 0-1.418.308-1.912.923s-.74 1.411-.74 2.402v.161zm12.4 2.651l3.149-6.738h1.084V45h-.879v-6.504L92.733 45h-.623l-3.105-6.65V45h-.872v-7.925h1.15l3.142 6.738zM105.096 45h-.879v-7.17h-4.27V45h-.879v-7.925h6.028V45zm7.354 0c-.088-.249-.144-.618-.169-1.106-.307.4-.7.711-1.179.93a3.61 3.61 0 0 1-1.509.322c-.761 0-1.379-.212-1.853-.637-.469-.425-.703-.962-.703-1.611a2.12 2.12 0 0 1 .96-1.831c.644-.449 1.54-.674 2.688-.674h1.589v-.901c0-.566-.176-1.011-.527-1.333s-.855-.491-1.524-.491c-.61 0-1.116.156-1.516.469s-.601.688-.601 1.128l-.878-.007c0-.63.293-1.174.878-1.633s1.307-.696 2.161-.696c.884 0 1.58.222 2.087.666.513.44.777 1.055.792 1.846v3.75c0 .767.08 1.34.241 1.721V45h-.937zm-2.754-.63c.586 0 1.108-.142 1.567-.425s.801-.662 1.011-1.135v-1.743h-1.567c-.874.01-1.558.171-2.051.483s-.74.732-.74 1.274a1.42 1.42 0 0 0 .491 1.106c.332.293.761.439 1.289.439zm11.88.63h-.879v-3.633h-4.27V45h-.879v-7.925h.879v3.552h4.27v-3.552h.879V45zm3.332 0h-.879v-7.925h.879V45zm-1.033-10.217a.58.58 0 0 1 .162-.417c.107-.117.254-.176.439-.176s.332.058.44.176.168.252.168.417-.056.305-.168.418a.58.58 0 0 1-.44.168c-.185 0-.332-.056-.439-.168a.58.58 0 0 1-.162-.418zm9.2 2.293V45h-.879v-3.193h-2.461L127.801 45h-.967l1.993-3.303c-.542-.142-.965-.415-1.267-.82s-.447-.884-.447-1.436c0-.718.256-1.291.769-1.721s1.216-.645 2.095-.645h3.098zm-5.083 2.38c0 .464.146.845.439 1.143s.711.452 1.238.462h2.527v-3.237h-2.241c-.611 0-1.092.147-1.443.439s-.52.691-.52 1.194z" fill="#494949"/></svg>